<svg xmlns="http://www.w3.org/2000/svg" width="499" height="130" viewBox="0 0 499 130">
  <defs>
    <style>
      .cls-1 {
        fill-rule: evenodd;
      }
    </style>
  </defs>
  <path id="play" class="cls-1" d="M141.5,53.781H158v-18H141.5v-16.5H125v-15H78.5v117H95v-36h30v-15H95v-51h30v16.5h16.5v18ZM125,70.281h16.5v-16.5H125v16.5Zm60,51h40.5v-15H185v15Zm-16.5-15H185v-102H168.5v102Zm99-87H284v15h16.5v36H251v-36H234.5v87H251v-36h49.5v36H317v-87H300.5v-15H284v-15H267.5v15Zm-16.5,15h16.5v-15H251v15Zm109.5,27v60H377v-60H360.5Zm-16.5-57H327.5v42H344v15h16.5v-15H344v-42Zm49.5,42H410v-42H393.5v42Zm-16.5,15h16.5v-15H377v15Z"/>
  <path id="ログ" class="cls-1" d="M436.7,52.72a1.658,1.658,0,0,0,1.68,1.68H489.7a1.659,1.659,0,0,0,1.681-1.68V1.475A1.7,1.7,0,0,0,489.7-.205H438.381a1.7,1.7,0,0,0-1.68,1.68V52.72Zm8.541-42.7a1.7,1.7,0,0,1,1.68-1.68h34.233a1.7,1.7,0,0,1,1.681,1.68V44.249a1.7,1.7,0,0,1-1.681,1.68H446.922a1.7,1.7,0,0,1-1.68-1.68V10.016Zm29.893,56.838a1.658,1.658,0,0,0,1.68,1.68H482a1.658,1.658,0,0,0,1.68-1.68V61.743a1.719,1.719,0,0,0-1.68-1.75h-5.181a1.719,1.719,0,0,0-1.68,1.75v5.111Zm15.4,0a1.618,1.618,0,0,0,1.681,1.68h5.11a1.618,1.618,0,0,0,1.68-1.68V61.743a1.676,1.676,0,0,0-1.68-1.75h-5.11a1.676,1.676,0,0,0-1.681,1.75v5.111ZM452.943,93.317a1.7,1.7,0,0,1,1.68-1.68h4.34a1.7,1.7,0,0,0,1.68-1.68V85.616a1.7,1.7,0,0,1,1.68-1.68h18.832a1.7,1.7,0,0,1,1.681,1.68v18.832a1.7,1.7,0,0,1-1.681,1.68h-4.34a1.7,1.7,0,0,0-1.68,1.68v4.341a1.7,1.7,0,0,1-1.68,1.68h-4.341a1.7,1.7,0,0,0-1.68,1.68v4.34a1.7,1.7,0,0,1-1.68,1.681H446.082a1.658,1.658,0,0,0-1.68,1.68v5.11a1.658,1.658,0,0,0,1.68,1.68h20.512a1.618,1.618,0,0,0,1.68-1.68v-4.27a1.7,1.7,0,0,1,1.68-1.68H474.3a1.7,1.7,0,0,0,1.68-1.681v-4.34a1.7,1.7,0,0,1,1.68-1.68H482a1.7,1.7,0,0,0,1.68-1.68v-4.341a1.7,1.7,0,0,1,1.68-1.68h4.34a1.7,1.7,0,0,0,1.681-1.68V77.075a1.7,1.7,0,0,0-1.681-1.68H462.323a1.7,1.7,0,0,1-1.68-1.68V69.374a1.7,1.7,0,0,0-1.68-1.68h-5.18a1.7,1.7,0,0,0-1.681,1.68V89.116a1.7,1.7,0,0,1-1.68,1.68H438.381a1.658,1.658,0,0,0-1.68,1.68v5.111a1.658,1.658,0,0,0,1.68,1.68h12.881a1.659,1.659,0,0,0,1.681-1.68V93.317Z"/>
  <path id="ログ-2" data-name="ログ" class="cls-1" d="M436.7,52.72a1.658,1.658,0,0,0,1.68,1.68H489.7a1.659,1.659,0,0,0,1.681-1.68V1.475A1.7,1.7,0,0,0,489.7-.205H438.381a1.7,1.7,0,0,0-1.68,1.68V52.72Zm8.541-42.7a1.7,1.7,0,0,1,1.68-1.68h34.233a1.7,1.7,0,0,1,1.681,1.68V44.249a1.7,1.7,0,0,1-1.681,1.68H446.922a1.7,1.7,0,0,1-1.68-1.68V10.016Zm29.893,56.838a1.658,1.658,0,0,0,1.68,1.68H482a1.658,1.658,0,0,0,1.68-1.68V61.743a1.719,1.719,0,0,0-1.68-1.75h-5.181a1.719,1.719,0,0,0-1.68,1.75v5.111Zm15.4,0a1.618,1.618,0,0,0,1.681,1.68h5.11a1.618,1.618,0,0,0,1.68-1.68V61.743a1.676,1.676,0,0,0-1.68-1.75h-5.11a1.676,1.676,0,0,0-1.681,1.75v5.111ZM452.943,93.317a1.7,1.7,0,0,1,1.68-1.68h4.34a1.7,1.7,0,0,0,1.68-1.68V85.616a1.7,1.7,0,0,1,1.68-1.68h18.832a1.7,1.7,0,0,1,1.681,1.68v18.832a1.7,1.7,0,0,1-1.681,1.68h-4.34a1.7,1.7,0,0,0-1.68,1.68v4.341a1.7,1.7,0,0,1-1.68,1.68h-4.341a1.7,1.7,0,0,0-1.68,1.68v4.34a1.7,1.7,0,0,1-1.68,1.681H446.082a1.658,1.658,0,0,0-1.68,1.68v5.11a1.658,1.658,0,0,0,1.68,1.68h20.512a1.618,1.618,0,0,0,1.68-1.68v-4.27a1.7,1.7,0,0,1,1.68-1.68H474.3a1.7,1.7,0,0,0,1.68-1.681v-4.34a1.7,1.7,0,0,1,1.68-1.68H482a1.7,1.7,0,0,0,1.68-1.68v-4.341a1.7,1.7,0,0,1,1.68-1.68h4.34a1.7,1.7,0,0,0,1.681-1.68V77.075a1.7,1.7,0,0,0-1.681-1.68H462.323a1.7,1.7,0,0,1-1.68-1.68V69.374a1.7,1.7,0,0,0-1.68-1.68h-5.18a1.7,1.7,0,0,0-1.681,1.68V89.116a1.7,1.7,0,0,1-1.68,1.68H438.381a1.658,1.658,0,0,0-1.68,1.68v5.111a1.658,1.658,0,0,0,1.68,1.68h12.881a1.659,1.659,0,0,0,1.681-1.68V93.317Z"/>
  <path id="ログ-3" data-name="ログ" class="cls-1" d="M436.7,52.72a1.658,1.658,0,0,0,1.68,1.68H489.7a1.659,1.659,0,0,0,1.681-1.68V1.475A1.7,1.7,0,0,0,489.7-.205H438.381a1.7,1.7,0,0,0-1.68,1.68V52.72Zm8.541-42.7a1.7,1.7,0,0,1,1.68-1.68h34.233a1.7,1.7,0,0,1,1.681,1.68V44.249a1.7,1.7,0,0,1-1.681,1.68H446.922a1.7,1.7,0,0,1-1.68-1.68V10.016Zm29.893,56.838a1.658,1.658,0,0,0,1.68,1.68H482a1.658,1.658,0,0,0,1.68-1.68V61.743a1.719,1.719,0,0,0-1.68-1.75h-5.181a1.719,1.719,0,0,0-1.68,1.75v5.111Zm15.4,0a1.618,1.618,0,0,0,1.681,1.68h5.11a1.618,1.618,0,0,0,1.68-1.68V61.743a1.676,1.676,0,0,0-1.68-1.75h-5.11a1.676,1.676,0,0,0-1.681,1.75v5.111ZM452.943,93.317a1.7,1.7,0,0,1,1.68-1.68h4.34a1.7,1.7,0,0,0,1.68-1.68V85.616a1.7,1.7,0,0,1,1.68-1.68h18.832a1.7,1.7,0,0,1,1.681,1.68v18.832a1.7,1.7,0,0,1-1.681,1.68h-4.34a1.7,1.7,0,0,0-1.68,1.68v4.341a1.7,1.7,0,0,1-1.68,1.68h-4.341a1.7,1.7,0,0,0-1.68,1.68v4.34a1.7,1.7,0,0,1-1.68,1.681H446.082a1.658,1.658,0,0,0-1.68,1.68v5.11a1.658,1.658,0,0,0,1.68,1.68h20.512a1.618,1.618,0,0,0,1.68-1.68v-4.27a1.7,1.7,0,0,1,1.68-1.68H474.3a1.7,1.7,0,0,0,1.68-1.681v-4.34a1.7,1.7,0,0,1,1.68-1.68H482a1.7,1.7,0,0,0,1.68-1.68v-4.341a1.7,1.7,0,0,1,1.68-1.68h4.34a1.7,1.7,0,0,0,1.681-1.68V77.075a1.7,1.7,0,0,0-1.681-1.68H462.323a1.7,1.7,0,0,1-1.68-1.68V69.374a1.7,1.7,0,0,0-1.68-1.68h-5.18a1.7,1.7,0,0,0-1.681,1.68V89.116a1.7,1.7,0,0,1-1.68,1.68H438.381a1.658,1.658,0,0,0-1.68,1.68v5.111a1.658,1.658,0,0,0,1.68,1.68h12.881a1.659,1.659,0,0,0,1.681-1.68V93.317Z"/>
  <path id="ログ-4" data-name="ログ" class="cls-1" d="M436.7,52.72a1.658,1.658,0,0,0,1.68,1.68H489.7a1.659,1.659,0,0,0,1.681-1.68V1.475A1.7,1.7,0,0,0,489.7-.205H438.381a1.7,1.7,0,0,0-1.68,1.68V52.72Zm8.541-42.7a1.7,1.7,0,0,1,1.68-1.68h34.233a1.7,1.7,0,0,1,1.681,1.68V44.249a1.7,1.7,0,0,1-1.681,1.68H446.922a1.7,1.7,0,0,1-1.68-1.68V10.016Zm29.893,56.838a1.658,1.658,0,0,0,1.68,1.68H482a1.658,1.658,0,0,0,1.68-1.68V61.743a1.719,1.719,0,0,0-1.68-1.75h-5.181a1.719,1.719,0,0,0-1.68,1.75v5.111Zm15.4,0a1.618,1.618,0,0,0,1.681,1.68h5.11a1.618,1.618,0,0,0,1.68-1.68V61.743a1.676,1.676,0,0,0-1.68-1.75h-5.11a1.676,1.676,0,0,0-1.681,1.75v5.111ZM452.943,93.317a1.7,1.7,0,0,1,1.68-1.68h4.34a1.7,1.7,0,0,0,1.68-1.68V85.616a1.7,1.7,0,0,1,1.68-1.68h18.832a1.7,1.7,0,0,1,1.681,1.68v18.832a1.7,1.7,0,0,1-1.681,1.68h-4.34a1.7,1.7,0,0,0-1.68,1.68v4.341a1.7,1.7,0,0,1-1.68,1.68h-4.341a1.7,1.7,0,0,0-1.68,1.68v4.34a1.7,1.7,0,0,1-1.68,1.681H446.082a1.658,1.658,0,0,0-1.68,1.68v5.11a1.658,1.658,0,0,0,1.68,1.68h20.512a1.618,1.618,0,0,0,1.68-1.68v-4.27a1.7,1.7,0,0,1,1.68-1.68H474.3a1.7,1.7,0,0,0,1.68-1.681v-4.34a1.7,1.7,0,0,1,1.68-1.68H482a1.7,1.7,0,0,0,1.68-1.68v-4.341a1.7,1.7,0,0,1,1.68-1.68h4.34a1.7,1.7,0,0,0,1.681-1.68V77.075a1.7,1.7,0,0,0-1.681-1.68H462.323a1.7,1.7,0,0,1-1.68-1.68V69.374a1.7,1.7,0,0,0-1.68-1.68h-5.18a1.7,1.7,0,0,0-1.681,1.68V89.116a1.7,1.7,0,0,1-1.68,1.68H438.381a1.658,1.658,0,0,0-1.68,1.68v5.111a1.658,1.658,0,0,0,1.68,1.68h12.881a1.659,1.659,0,0,0,1.681-1.68V93.317Z"/>
  <path id="_" data-name="&gt;" class="cls-1" d="M14.919,99.127a2.92,2.92,0,0,1,2.88-2.88h7.44a2.843,2.843,0,0,0,2.88-2.88v-7.32A2.843,2.843,0,0,1,31,83.168h7.44a2.92,2.92,0,0,0,2.88-2.88v-7.44a2.92,2.92,0,0,1,2.88-2.88h7.44a2.92,2.92,0,0,0,2.88-2.88v-8.88a2.92,2.92,0,0,0-2.88-2.88H44.2a2.92,2.92,0,0,1-2.88-2.88v-7.44a2.92,2.92,0,0,0-2.88-2.88H31a2.92,2.92,0,0,1-2.88-2.88V31.81a2.92,2.92,0,0,0-2.88-2.88H17.8a2.843,2.843,0,0,1-2.88-2.88V18.73a2.843,2.843,0,0,0-2.88-2.88H3.16A2.745,2.745,0,0,0,.4,18.73v8.88a2.818,2.818,0,0,0,2.76,2.88H10.6a2.843,2.843,0,0,1,2.88,2.88v7.32a2.843,2.843,0,0,0,2.88,2.88H23.8a2.92,2.92,0,0,1,2.88,2.88v7.44a2.92,2.92,0,0,0,2.88,2.88H37a2.92,2.92,0,0,1,2.88,2.88v6A2.92,2.92,0,0,1,37,68.528h-7.44a2.843,2.843,0,0,0-2.88,2.88v7.32a2.843,2.843,0,0,1-2.88,2.88h-7.44a2.92,2.92,0,0,0-2.88,2.88v7.44a2.92,2.92,0,0,1-2.88,2.88H3.16A2.818,2.818,0,0,0,.4,97.687v8.88a2.818,2.818,0,0,0,2.76,2.879h8.88a2.92,2.92,0,0,0,2.88-2.879v-7.44Z"/>
</svg>
